<?xml version="1.0" standalone="no"?>
<!DOCTYPE svg PUBLIC "-//W3C//DTD SVG 20010904//EN"
 "http://www.w3.org/TR/2001/REC-SVG-20010904/DTD/svg10.dtd">
<svg version="1.0" xmlns="http://www.w3.org/2000/svg"
 width="512.000000pt" height="512.000000pt" viewBox="0 0 512.000000 512.000000"
 preserveAspectRatio="xMidYMid meet">

<g transform="translate(0.000000,512.000000) scale(0.100000,-0.100000)"
fill="#000000" stroke="none">
<path d="M2275 4919 c-496 -221 -491 -218 -504 -245 -7 -17 -11 -143 -11 -404
l0 -380 -100 -50 c-55 -28 -100 -55 -100 -60 0 -19 60 -130 70 -130 6 0 55 23
110 50 l100 50 270 -152 c148 -84 270 -155 270 -159 0 -3 -22 -16 -50 -29 -27
-13 -50 -27 -50 -32 0 -7 57 -127 65 -136 1 -2 32 13 69 33 l66 37 0 -92 c0
-83 2 -93 25 -115 15 -16 36 -25 55 -25 19 0 40 9 55 25 23 22 25 32 25 115
l0 90 60 -30 c33 -16 64 -30 70 -30 13 0 73 119 66 135 -2 7 -25 21 -50 31
-25 11 -46 21 -46 24 0 3 37 26 83 51 45 26 167 94 270 153 l188 106 99 -50
c55 -28 104 -50 110 -50 10 0 70 111 70 130 0 5 -45 32 -100 60 l-100 50 0
389 c0 356 -1 390 -17 409 -18 19 -759 352 -784 352 -8 0 -135 -55 -284 -121z
m543 -161 c138 -62 252 -115 252 -119 0 -3 -17 -14 -39 -23 l-39 -18 31 -69
c17 -38 37 -69 44 -69 8 0 36 11 63 25 27 14 54 25 60 25 7 0 10 -104 10 -312
l-1 -313 -271 -150 c-149 -82 -275 -151 -280 -153 -4 -2 -8 28 -8 67 l0 71
-80 0 -80 0 0 -71 c0 -39 -4 -69 -8 -67 -5 2 -131 71 -280 153 l-271 150 -1
313 c0 178 4 312 9 312 5 0 33 -11 63 -25 29 -14 58 -25 64 -25 6 0 25 32 42
70 l31 71 -39 15 c-22 9 -40 19 -40 23 0 7 485 228 505 230 6 1 124 -49 263
-111z"/>
<path d="M2302 4430 l-31 -70 44 -19 c25 -11 72 -32 105 -47 l60 -27 0 -113 0
-114 80 0 80 0 0 114 0 113 60 27 c33 15 80 36 105 47 l44 19 -31 68 c-16 37
-32 69 -34 71 -2 3 -54 -17 -114 -44 l-110 -48 -104 47 c-57 25 -108 46 -113
46 -6 0 -24 -31 -41 -70z"/>
<path d="M925 3472 c-250 -129 -809 -443 -827 -464 -17 -19 -18 -55 -18 -445
0 -256 4 -432 10 -443 5 -10 167 -105 359 -211 l350 -194 1 -117 0 -118 80 0
80 0 0 75 0 75 60 -30 c33 -16 64 -30 70 -30 13 0 73 119 66 135 -2 7 -25 21
-50 31 -25 11 -46 21 -46 24 0 3 122 74 270 158 l270 152 100 -50 c55 -27 103
-50 108 -50 10 0 74 129 68 139 -3 4 -23 16 -46 26 -22 10 -40 21 -40 25 0 3
20 16 45 28 25 12 45 26 45 32 0 19 -60 130 -70 130 -6 0 -37 -14 -70 -30
l-60 -30 0 310 0 310 100 50 c55 28 100 55 100 60 0 19 -60 130 -70 130 -6 0
-55 -22 -110 -50 l-99 -50 -275 153 -275 152 55 28 c30 15 54 29 54 32 0 16
-66 135 -75 135 -5 0 -77 -35 -160 -78z m157 -315 c112 -63 236 -131 276 -152
39 -22 72 -42 72 -46 0 -3 -24 -18 -52 -34 -29 -15 -54 -29 -56 -30 -2 -2 65
-122 75 -135 2 -2 31 11 63 29 l60 32 0 -308 -1 -308 -271 -150 c-149 -82
-275 -151 -280 -153 -4 -2 -8 28 -8 67 l0 71 -80 0 -80 0 0 -71 c0 -39 -4 -69
-8 -67 -5 2 -131 71 -280 153 l-271 150 -1 308 c0 169 2 307 3 307 2 0 28 -13
58 -30 30 -16 57 -30 61 -30 11 0 80 128 74 138 -2 4 -27 19 -55 32 -28 13
-51 26 -51 29 1 4 475 273 547 310 1 1 93 -50 205 -112z"/>
<path d="M635 2694 c-30 -53 -35 -68 -24 -75 8 -5 53 -31 101 -57 l88 -47 0
-117 0 -118 80 0 80 0 0 118 0 117 88 47 c48 26 93 52 101 57 11 7 6 22 -24
75 -20 36 -39 66 -42 66 -4 0 -50 -25 -104 -55 l-98 -54 -98 54 c-54 30 -101
55 -105 55 -3 0 -23 -30 -43 -66z"/>
<path d="M3992 3485 c-18 -36 -32 -67 -32 -70 0 -3 25 -17 56 -33 l56 -28
-276 -152 -276 -152 -100 50 c-55 27 -103 50 -108 50 -7 0 -72 -122 -72 -135
0 -3 45 -27 100 -55 l100 -50 0 -310 0 -310 -60 30 c-33 16 -64 30 -70 30 -10
0 -70 -111 -70 -130 0 -6 20 -20 45 -32 25 -12 45 -25 45 -28 0 -3 -20 -16
-45 -28 -25 -12 -45 -26 -45 -32 0 -19 60 -130 70 -130 6 0 55 23 110 50 l100
50 270 -152 c148 -84 270 -155 270 -159 0 -3 -22 -16 -50 -29 -27 -13 -50 -27
-50 -32 0 -7 57 -127 65 -136 1 -2 32 13 69 33 l66 37 0 -76 0 -76 80 0 80 0
0 118 1 117 336 185 c186 102 347 195 360 207 l23 22 0 429 c0 395 -1 431 -17
450 -31 35 -957 542 -991 542 -4 0 -22 -29 -40 -65z m450 -328 c112 -63 236
-131 276 -152 39 -22 72 -42 72 -46 0 -4 -24 -19 -54 -35 l-55 -28 37 -68 c20
-37 40 -68 45 -68 4 0 32 14 62 31 l55 31 0 -309 -1 -308 -271 -150 c-149 -82
-275 -151 -280 -153 -4 -2 -8 28 -8 67 l0 71 -80 0 -80 0 0 -71 c0 -39 -4 -69
-8 -67 -5 2 -131 71 -280 153 l-271 150 -1 308 c0 169 2 307 3 307 2 0 28 -13
58 -30 30 -16 57 -30 61 -30 8 0 78 117 78 130 0 5 -19 19 -42 31 -24 12 -49
26 -56 32 -9 7 60 50 260 162 150 84 274 153 275 154 1 1 93 -50 205 -112z"/>
<path d="M3994 2694 c-30 -54 -34 -68 -23 -75 8 -5 53 -31 101 -57 l88 -47 0
-117 0 -118 80 0 80 0 0 118 0 117 100 53 c55 29 100 56 100 59 0 11 -71 133
-77 133 -4 0 -50 -25 -104 -55 l-98 -54 -98 54 c-54 30 -101 55 -105 55 -4 0
-24 -30 -44 -66z"/>
<path d="M2480 2805 l0 -115 -100 -50 c-55 -28 -100 -55 -100 -60 0 -19 60
-130 70 -130 6 0 55 23 110 50 l100 50 100 -50 c55 -27 104 -50 110 -50 10 0
70 111 70 130 0 5 -45 32 -100 60 l-100 50 0 115 0 115 -80 0 -80 0 0 -115z"/>
<path d="M2310 1810 c-16 -33 -30 -64 -30 -70 0 -5 23 -21 51 -36 28 -14 48
-29 43 -34 -5 -4 -127 -74 -272 -154 l-262 -146 -100 50 c-55 28 -103 50 -108
50 -7 0 -72 -122 -72 -135 0 -3 45 -27 100 -55 l100 -50 0 -270 0 -270 -60 30
c-33 16 -64 30 -70 30 -10 0 -70 -111 -70 -130 0 -5 55 -37 123 -71 67 -34
288 -154 491 -266 315 -175 373 -204 400 -200 17 3 182 89 366 192 184 103
401 220 483 261 81 41 147 76 147 79 0 13 -65 135 -72 135 -5 0 -38 -13 -73
-29 l-65 -30 0 270 0 269 100 50 c55 28 100 55 100 60 0 19 -60 130 -70 130
-6 0 -55 -22 -110 -50 l-99 -50 -275 153 -275 152 55 28 c30 15 54 29 54 32 0
13 -65 135 -72 135 -5 0 -53 -23 -108 -50 l-100 -50 -100 50 c-55 27 -104 50
-110 50 -5 0 -23 -27 -40 -60z m452 -333 c112 -63 236 -131 276 -152 39 -22
72 -42 72 -46 0 -4 -24 -19 -54 -35 l-55 -28 37 -68 c20 -37 40 -68 45 -68 4
0 32 14 62 31 l55 31 0 -269 -1 -268 -271 -150 c-149 -82 -275 -152 -280 -153
-4 -2 -8 28 -8 67 l0 71 -80 0 -80 0 0 -71 c0 -39 -4 -69 -8 -67 -5 1 -131 71
-280 153 l-271 150 -1 268 c0 147 2 267 3 267 2 0 28 -13 58 -30 30 -16 57
-30 61 -30 8 0 78 117 78 131 0 5 -25 21 -55 36 -30 15 -55 30 -55 33 1 3 479
274 547 309 1 1 93 -50 205 -112z"/>
<path d="M2314 1014 c-30 -54 -34 -68 -23 -75 8 -5 53 -31 101 -57 l88 -47 0
-117 0 -118 80 0 80 0 0 118 0 117 88 47 c48 26 93 52 101 57 11 7 7 21 -23
75 -20 36 -40 66 -43 66 -4 0 -50 -25 -104 -55 l-98 -54 -98 54 c-54 30 -101
55 -105 55 -4 0 -24 -30 -44 -66z"/>
<path d="M800 1169 c0 -85 5 -159 10 -170 10 -17 256 -149 280 -149 10 0 70
111 70 130 0 5 -45 32 -100 60 l-100 50 0 115 0 115 -80 0 -80 0 0 -151z"/>
<path d="M4160 1205 l0 -115 -100 -50 c-55 -28 -100 -55 -100 -60 0 -19 60
-130 70 -130 24 0 270 132 280 149 5 11 10 85 10 170 l0 151 -80 0 -80 0 0
-115z"/>
</g>
</svg>
